PathFileType	4	(X/Y/Z)	Run_300 01
DataRate	CameraRate	NumFrames	NumMarkers	Units	OrigDataRate	OrigDataStartFrame	OrigNumFrames
120	120	6	41	mm	120	237	125
Frame#	Time	LASI			RASI			LPSI			RPSI			RTH1			RTH3			LTH1			LTH2			LTH3			RTB1			RTB2			RTB3			LTB1			LTB2			LTB3			RCAL			RTOE			RMT5			LCAL			LTOE			LMT5			LACR			RACR			CLAV			C7			RUA1			RUA2			RUA3			RLEL			RMEL			LUA1			LUA2			LUA3			LLEL			LMEL			RFAsuperior			RFAradius			RFAulna			LFAsuperior			LFAradius			LFAulna			
		X1	Y1	Z1	X2	Y2	Z2	X3	Y3	Z3	X4	Y4	Z4	X5	Y5	Z5	X6	Y6	Z6	X7	Y7	Z7	X8	Y8	Z8	X9	Y9	Z9	X10	Y10	Z10	X11	Y11	Z11	X12	Y12	Z12	X13	Y13	Z13	X14	Y14	Z14	X15	Y15	Z15	X16	Y16	Z16	X17	Y17	Z17	X18	Y18	Z18	X19	Y19	Z19	X20	Y20	Z20	X21	Y21	Z21	X22	Y22	Z22	X23	Y23	Z23	X24	Y24	Z24	X25	Y25	Z25	X26	Y26	Z26	X27	Y27	Z27	X28	Y28	Z28	X29	Y29	Z29	X30	Y30	Z30	X31	Y31	Z31	X32	Y32	Z32	X33	Y33	Z33	X34	Y34	Z34	X35	Y35	Z35	X36	Y36	Z36	X37	Y37	Z37	X38	Y38	Z38	X39	Y39	Z39	X40	Y40	Z40	X41	Y41	Z41	

237	2.466667	894.700547	972.1858999999999	-411.386587	926.514543	941.129722	-193.682689	739.779958	993.716617	-330.136766	752.120052	977.668939	-235.467195	886.2395739999999	777.248647	-130.99256	916.635177	527.777394	-146.65068	890.3274730000001	791.120741	-476.459019	976.776912	707.9262199999999	-450.91865	953.126347	580.608357	-413.710321	820.721844	407.412618	-214.666676	751.878977	427.672926	-144.623131	690.802259	405.818666	-208.396739	1003.243201	375.097069	-311.335166	954.783006	303.14344	-381.870966	946.157692	213.499566	-300.042545	535.253953	512.031359	-213.108372	498.187424	304.622218	-231.791279	481.091521	331.075915	-139.472919	805.3624569999999	108.077939	-291.637289	1007.215754	75.80920999999999	-255.118148	997.627569	60.922583	-345.888432	890.818998	1405.255424	-499.084502	910.9800770000001	1412.404241	-101.87729	966.313374	1403.057345	-283.118013	843.0110969999999	1468.336955	-312.116664	839.823994	1289.925634	-47.24624	765.173101	1297.756922	-58.10327	788.905891	1220.191291	-16.828422	745.246409	1164.877233	7.06844	703.236096	1151.896684	-63.524596	810.617292	1284.223148	-553.5071840000001	733.877168	1255.071612	-546.7237280000001	786.745194	1200.201886	-570.167114	723.741204	1143.069105	-593.683654	685.824844	1142.577945	-515.43188	821.4404469999999	1063.725119	-19.642206	874.41955	977.744645	-88.511549	839.000899	943.01003	-38.502943	832.035968	1076.259736	-569.897549	924.835611	1060.257715	-484.006644	916.421725	1010.384793	-530.105855	
238	2.475	893.255413	970.636276	-411.738391	923.703379	938.9925459999999	-193.440902	738.357194	992.470761	-330.798144	749.362922	976.478299	-236.264646	885.9831809999999	775.065705	-131.349665	932.253094	528.562264	-146.366295	886.013203	788.825494	-477.17541	972.383135	704.851236	-451.937526	944.060462	576.656842	-414.39848	840.8366600000001	408.025936	-215.334416	771.864202	427.128989	-144.711505	710.771595	404.966958	-209.012194	988.63827	369.120088	-312.637498	937.54475	298.633757	-382.754677	926.144688	210.495711	-300.011819	552.300135	509.538494	-212.857581	520.653701	301.148906	-230.988848	505.051329	327.013007	-138.4153	780.826287	108.707697	-291.51862	982.588439	75.138555	-255.220895	972.773725	60.336755	-345.995748	894.43678	1400.505076	-499.68097	908.006646	1409.081873	-101.853039	966.14858	1399.659088	-282.265895	843.504071	1465.734465	-313.248442	834.2487640000001	1287.697147	-48.201245	760.30465	1295.660288	-62.480286	781.71215	1218.998581	-17.936939	736.874344	1163.769977	5.223614	696.626748	1150.496934	-66.191165	817.635184	1277.202978	-553.811554	741.522917	1245.198863	-549.302335	796.978418	1192.38965	-570.718735	736.495584	1132.650049	-595.592659	695.7428	1130.802299	-519.109641	808.897166	1057.715379	-16.736436	858.529961	966.88059	-81.86833300000001	820.177108	935.522481	-31.812374	846.302855	1069.266196	-569.367355	936.40979	1055.89253	-481.350494	930.765787	1005.933569	-528.014696	
239	2.483333	892.074213	969.785318	-412.653675	920.61457	937.871751	-193.030458	737.113144	992.016218	-332.089078	746.651757	976.100292	-237.653907	884.555254	773.606912	-131.652516	947.5859	531.37131	-146.554206	882.0944469999999	787.103015	-477.981844	967.636103	700.642956	-452.667485	933.556194	573.001882	-414.90449	860.691379	409.169431	-216.28681	791.596589	427.065128	-145.161182	730.533034	404.18354	-210.028332	973.208487	363.25412	-313.327407	920.544796	294.03253	-383.057453	905.168605	208.007901	-299.636571	568.235396	505.399914	-212.660159	544.2019309999999	295.970224	-230.454993	529.572258	321.110466	-137.660855	756.108123	109.412435	-291.571587	957.7810459999999	74.700723	-255.417625	947.804681	59.997095	-346.191398	898.241131	1397.533196	-499.946492	904.807262	1407.098585	-101.791813	965.776661	1397.425081	-281.215845	843.809724	1464.397663	-314.425351	828.602028	1286.744847	-49.027831	755.637501	1295.238225	-66.975792	774.377496	1219.426206	-19.164046	728.354559	1164.703068	3.567391	689.830619	1151.023145	-68.664075	824.1949080000001	1272.517323	-554.024039	749.395095	1237.635067	-550.581374	807.250255	1186.791395	-570.845473	749.378832	1124.532163	-596.621524	706.500195	1121.360458	-521.571567	796.095653	1054.288923	-13.816087	842.112983	958.912282	-75.62522	801.210955	930.834761	-25.612391	860.8131519999999	1064.610917	-568.262291	948.418213	1053.975754	-478.208908	945.650442	1003.996862	-525.574124	
240	2.491667	890.9989430000001	969.6545	-413.879997	917.5070919999999	937.868454	-192.621132	735.8235089999999	992.333785	-333.750161	744.161476	976.382809	-239.371584	882.785133	773.106998	-132.030278	962.300805	536.291528	-147.113687	878.611146	785.925841	-478.868486	961.707408	695.599343	-453.162728	922.446238	569.7738430000001	-415.555131	880.059206	410.898807	-217.533107	810.837369	427.539955	-145.994724	750.0522560000001	403.481617	-211.699503	957.027171	358.038617	-313.572144	903.203537	290.008196	-383.055857	883.459635	206.08279	-299.403466	583.121636	499.493795	-212.544765	568.693037	289.226066	-230.233844	554.42933	313.507666	-137.245816	731.2752359999999	110.200929	-291.956436	932.82839	74.51134399999999	-255.773731	922.751499	59.782324	-346.492261	902.114338	1396.415345	-499.947473	901.283499	1406.438622	-101.707008	965.230441	1396.471276	-279.992739	844.079416	1464.360244	-315.648147	822.6960340000001	1287.180765	-49.717618	750.797208	1296.498714	-71.114351	766.734454	1221.474566	-20.354963	719.487798	1167.594585	2.11623	682.576914	1153.471834	-70.88637199999999	830.383726	1269.934913	-554.2291739999999	757.184587	1232.332443	-550.853313	817.132795	1183.349999	-570.718563	761.883851	1118.851891	-596.903721	717.690887	1114.589827	-522.6525779999999	783.13803	1053.615488	-11.035527	825.664458	954.3090089999999	-70.029201	782.744636	929.254911	-20.061882	874.976301	1062.5244	-566.711257	960.5491029999999	1054.828797	-474.688212	960.649373	1004.816008	-522.657425	
241	2.5	890.154706	970.354391	-415.239879	914.824935	939.084189	-192.161128	734.657663	993.428121	-335.572833	742.22969	977.518412	-241.062079	881.569567	773.973701	-132.505099	976.0878279999999	543.177731	-148.001207	875.10346	785.105379	-479.700116	953.824851	690.297068	-453.671259	910.87933	567.0599120000001	-416.315168	898.777822	413.215887	-219.085963	829.420071	428.562573	-147.196658	769.437694	402.683198	-213.908278	939.874344	353.81937	-313.808102	884.713814	287.009985	-383.125029	861.232442	204.60989	-299.659617	597.13129	491.753465	-212.554586	594.049156	281.087665	-230.307243	579.554	304.374724	-137.200388	706.4197809999999	111.08504	-292.674714	907.807251	74.48839099999999	-256.247556	897.656044	59.580052	-346.871246	905.950115	1397.098962	-499.699536	897.424813	1407.046554	-101.642448	964.547983	1396.861096	-278.641361	844.310058	1465.425511	-316.818369	816.3803799999999	1289.146339	-50.305501	745.47577	1299.433147	-74.561031	758.695261	1225.142635	-21.358401	710.160702	1172.267733	0.83108	674.750716	1157.724452	-72.840439	836.482385	1269.16426	-554.391468	764.714071	1229.155303	-550.577435	826.393296	1181.986761	-570.4447249999999	773.734457	1115.516992	-596.659011	728.809636	1110.470527	-522.612871	770.175298	1055.638188	-8.619581999999999	809.7085510000001	953.236885	-65.33106600000001	765.3483629999999	930.825386	-15.326632	888.405512	1063.038652	-564.829254	972.36194	1058.540342	-470.828713	975.291603	1008.422593	-519.059214	
242	2.508333	889.8692129999999	971.930284	-416.713511	912.965292	941.476053	-191.557868	734.062308	995.281869	-337.550815	741.1779299999999	979.711135	-242.569517	881.446148	776.543304	-133.020305	988.699849	551.6538870000001	-149.25578	870.831619	784.594204	-480.313292	943.868306	685.5069999999999	-454.364316	898.5364510000001	565.054218	-416.93751	916.735511	416.004358	-220.987502	847.245848	430.072985	-148.702718	788.76584	401.543279	-216.220468	921.523284	350.759884	-314.333739	864.703357	285.227307	-383.470739	838.66014	203.596912	-300.383948	610.508842	482.163566	-212.768072	620.280978	271.743583	-230.552192	605.0587420000001	293.946485	-137.493069	681.583419	112.07989	-293.567664	882.774359	74.536965	-256.741713	872.530652	59.369153	-347.272382	909.707537	1399.4471	-499.242299	893.264043	1408.883295	-101.615668	963.775308	1398.593511	-277.189117	844.410605	1467.365593	-317.838572	809.612091	1292.729197	-50.816268	739.558953	1303.978961	-77.22170800000001	750.274099	1230.357081	-22.134881	700.403963	1178.541307	-0.365883	666.461507	1163.631993	-74.578344	842.740999	1269.958646	-554.432186	771.965413	1227.982963	-550.2142229999999	835.027885	1182.561252	-570.049385	784.8946979999999	1114.30152	-596.116396	739.4469350000001	1108.733758	-522.012019	757.416353	1060.138069	-6.784735	794.6793269999999	955.539479	-61.723617	749.3777219999999	935.310821	-11.572286	900.952488	1065.934378	-562.567802	983.42615	1064.960581	-466.614847	989.162418	1014.633794	-514.614945	
